# xmcd
#
# Track frame offsets:
#	150
#	14530
#	33855
#	56137
#	67375
#	88545
#	109480
#	133995
#	161810
#	174807
#	187970
#	212542
#	233732
#
# Disc length: 3360 seconds
#
# Revision: 0
# Processed by: cddbd v1.4PL0 Copyright (c) Steve Scherf et al.
# Submitted via: dBpowerAMP V4.0
#
DISCID=b70d1e0d
DTITLE=Jøran Fristorp - Songs for the brokenhearted
DYEAR=1993
DGENRE=Ballad
TTITLE0=I get along without you very well
TTITLE1=My one and only love
TTITLE2=Smoke gets in your eyes
TTITLE3=What`s new
TTITLE4=Someone to watch over me
TTITLE5=You are too beatuiful
TTITLE6=You don`,t know what love is
TTITLE7=Spring canreally hang you up the most
TTITLE8=Skylark
TTITLE9=You go to my head
TTITLE10=Round midnight
TTITLE11=Evertime we say goodbye
TTITLE12=Here`s that rainy day
EXTD=
EXTT0=
EXTT1=
EXTT2=
EXTT3=
EXTT4=
EXTT5=
EXTT6=
EXTT7=
EXTT8=
EXTT9=
EXTT10=
EXTT11=
EXTT12=
PLAYORDER=
